<?xml version="1.0" encoding="UTF-8"?>
<svg width="96px" height="96px" viewBox="0 0 96 96" version="1.1" xmlns="http://www.w3.org/2000/svg" xmlns:xlink="http://www.w3.org/1999/xlink">
    <title>Clear</title>
    <g id="Page-1" stroke="none" stroke-width="1" fill="none" fill-rule="evenodd">
        <g id="Clear" transform="translate(0.006, 0.006)" fill="#000000">
            <path d="M91.988,51.992 L83.992,51.992 C81.782,51.992 79.992,50.202 79.992,47.994 C79.992,45.786 81.782,43.994 83.992,43.994 L91.988,43.994 C94.198,43.994 95.988,45.786 95.988,47.994 C95.988,50.202 94.2,51.992 91.988,51.992 Z M76.278,25.37 C74.716,26.932 72.18,26.932 70.622,25.37 C69.06,23.808 69.06,21.276 70.622,19.714 L76.278,14.058 C77.836,12.496 80.372,12.496 81.934,14.058 C83.492,15.62 83.492,18.152 81.934,19.714 L76.278,25.37 Z M47.996,71.99 C34.742,71.99 23.996,61.246 23.996,47.994 C23.996,34.74 34.74,23.996 47.996,23.996 C61.25,23.996 71.992,34.74 71.992,47.994 C71.992,61.246 61.25,71.99 47.996,71.99 Z M47.996,31.996 C39.16,31.996 31.996,39.158 31.996,47.994 C31.996,56.828 39.162,63.992 47.996,63.992 C56.83,63.992 63.992,56.828 63.992,47.994 C63.992,39.158 56.832,31.996 47.996,31.996 Z M47.996,15.998 C45.786,15.998 43.996,14.206 43.996,11.998 L43.996,4 C43.996,1.792 45.786,0 47.996,0 C50.204,0 51.996,1.792 51.996,4 L51.996,11.998 C51.996,14.206 50.202,15.998 47.996,15.998 Z M19.714,25.37 L14.058,19.714 C12.496,18.152 12.496,15.62 14.058,14.058 C15.62,12.496 18.152,12.496 19.714,14.058 L25.37,19.714 C26.932,21.276 26.932,23.808 25.37,25.37 C23.808,26.932 21.276,26.932 19.714,25.37 Z M15.998,47.994 C15.998,50.202 14.206,51.992 11.998,51.992 L3.998,51.992 C1.79,51.992 0,50.202 0,47.994 C0,45.786 1.792,43.994 3.998,43.994 L11.998,43.994 C14.208,43.994 15.998,45.786 15.998,47.994 Z M19.714,70.618 C21.276,69.058 23.808,69.058 25.37,70.618 C26.932,72.18 26.932,74.714 25.37,76.274 L19.714,81.93 C18.152,83.492 15.62,83.492 14.058,81.93 C12.496,80.37 12.496,77.836 14.058,76.274 L19.714,70.618 Z M47.996,79.99 C50.204,79.99 51.996,81.78 51.996,83.988 L51.996,91.988 C51.996,94.196 50.204,95.988 47.996,95.988 C45.786,95.988 43.996,94.196 43.996,91.988 L43.996,83.988 C43.996,81.78 45.786,79.99 47.996,79.99 Z M76.278,70.618 L81.934,76.274 C83.492,77.836 83.492,80.37 81.934,81.93 C80.372,83.492 77.836,83.492 76.278,81.93 L70.622,76.274 C69.06,74.714 69.06,72.18 70.622,70.618 C72.18,69.056 74.714,69.056 76.278,70.618 Z" id="Shape"></path>
        </g>
    </g>
</svg>