<?xml version="1.0" encoding="UTF-8"?>
<svg width="24px" height="24px" viewBox="0 0 24 24" version="1.1" xmlns="http://www.w3.org/2000/svg" xmlns:xlink="http://www.w3.org/1999/xlink">
    <title>ClearNight</title>
    <g id="Page-1" stroke="none" stroke-width="1" fill="none" fill-rule="evenodd">
        <g id="ClearNight" transform="translate(0.001, 0.001)" fill="#000000">
            <path d="M11.999,23.997 C5.372,23.997 0,18.625 0,11.999 C0,5.372 5.372,0 11.999,0 C12.754,0 13.49,0.078 14.206,0.212 C14.074,0.788 13.998,1.385 13.998,2 C13.998,6.418 17.58,9.999 21.998,9.999 C22.613,9.999 23.21,9.923 23.786,9.791 C23.919,10.508 23.997,11.243 23.997,11.999 C23.997,18.625 18.625,23.997 11.999,23.997 Z M10.211,4.207 C6.655,5.02 4,8.196 4,11.999 C4,16.416 7.581,19.998 11.999,19.998 C15.801,19.998 18.977,17.343 19.79,13.787 C14.936,12.883 11.114,9.061 10.211,4.207 Z" id="Shape"></path>
        </g>
    </g>
</svg>