<?xml version="1.0" encoding="UTF-8"?>
<svg width="91px" height="79px" viewBox="0 0 91 79" version="1.1" xmlns="http://www.w3.org/2000/svg" xmlns:xlink="http://www.w3.org/1999/xlink">
    <title>Cloud-Moon</title>
    <g id="Page-1" stroke="none" stroke-width="1" fill="none" fill-rule="evenodd">
        <g id="Cloud-Moon" transform="translate(0.896, 0.286)" fill="#000000">
            <path d="M83.63,40.23 L83.63,40.23 C86.366,44.128 87.988,48.866 87.988,53.996 C87.988,67.246 77.246,77.992 63.992,77.992 C58.442,77.992 38.39,77.992 31.996,77.992 C14.324,77.992 7.10542736e-15,63.668 7.10542736e-15,45.996 C7.10542736e-15,28.324 14.324,14 31.996,14 C36,14 39.824,14.75 43.356,16.094 L43.356,16.094 C46.626,6.73 55.512,0 65.992,0 C67.502,0 68.974,0.156 70.406,0.424 C70.144,1.574 69.992,2.77 69.992,4 C69.992,12.836 77.154,19.998 85.988,19.998 C87.22,19.998 88.414,19.846 89.566,19.582 C89.832,21.016 89.988,22.488 89.988,23.998 C89.986,30.264 87.564,35.956 83.63,40.23 Z M7.998,45.996 C7.998,59.25 18.74,69.992 31.994,69.992 C39.226,69.992 57.952,69.992 63.99,69.992 C72.826,69.992 79.988,62.828 79.988,53.996 C79.988,45.16 72.826,37.996 63.99,37.996 C60.79,37.996 57.824,38.96 55.322,40.578 C52.86,29.946 43.376,21.998 31.994,21.998 C18.74,21.998 7.998,32.742 7.998,45.996 Z M62.414,8.414 C56.614,9.742 52.064,14.234 50.564,19.964 L50.564,19.964 C54.4,22.708 57.61,26.268 59.924,30.404 C61.252,30.178 62.598,29.994 63.99,29.994 C69.226,29.994 74.056,31.694 78,34.536 L78,34.536 C79.716,32.578 80.97,30.2 81.572,27.572 C71.866,25.764 64.222,18.126 62.414,8.414 Z" id="Shape"></path>
        </g>
    </g>
</svg>