<?xml version="1.0" encoding="UTF-8"?>
<svg width="109px" height="97px" viewBox="0 0 109 97" version="1.1" xmlns="http://www.w3.org/2000/svg" xmlns:xlink="http://www.w3.org/1999/xlink">
    <title>Cloud-Sun</title>
    <g id="Page-1" stroke="none" stroke-width="1" fill="none" fill-rule="evenodd">
        <g id="Cloud-Sun" transform="translate(0.896, 0.29)" fill="#000000">
            <path d="M103.986,51.992 L95.986,51.992 C93.778,51.992 91.986,50.202 91.986,47.992 C91.986,45.784 93.778,43.996 95.986,43.996 L103.986,43.996 C106.194,43.996 107.986,45.786 107.986,47.992 C107.986,50.202 106.194,51.992 103.986,51.992 Z M88.272,25.368 C86.71,26.93 84.178,26.93 82.616,25.368 C81.054,23.808 81.054,21.274 82.616,19.714 L88.272,14.058 C89.834,12.496 92.366,12.496 93.928,14.058 C95.49,15.618 95.49,18.152 93.928,19.714 L88.272,25.368 Z M82.378,56.582 L82.378,56.582 C85.876,60.754 87.99,66.122 87.99,71.992 C87.99,85.242 77.246,95.988 63.992,95.988 C58.442,95.988 38.39,95.988 31.996,95.988 C14.326,95.988 -7.10542736e-15,81.664 -7.10542736e-15,63.992 C-7.10542736e-15,46.32 14.326,31.996 31.996,31.996 C35.14,31.996 38.176,32.46 41.042,33.304 C45.432,27.65 52.278,23.996 59.992,23.996 C73.246,23.996 83.99,34.742 83.99,47.992 C83.988,51.022 83.402,53.914 82.378,56.582 Z M7.998,63.992 C7.998,77.246 18.74,87.988 31.994,87.988 C39.226,87.988 57.952,87.988 63.99,87.988 C72.826,87.988 79.988,80.824 79.988,71.992 C79.988,63.156 72.826,55.992 63.99,55.992 C60.79,55.992 57.824,56.956 55.324,58.574 C52.862,47.942 43.376,39.996 31.994,39.996 C18.74,39.996 7.998,50.738 7.998,63.992 Z M59.99,31.996 C55.566,31.996 51.56,33.792 48.666,36.694 C53.346,39.566 57.236,43.6 59.924,48.402 C61.252,48.176 62.598,47.992 63.99,47.992 C68.24,47.992 72.228,49.11 75.69,51.046 L75.69,51.046 C75.882,50.058 75.99,49.038 75.99,47.992 C75.99,39.16 68.826,31.996 59.99,31.996 Z M59.99,15.996 C57.782,15.996 55.992,14.206 55.992,11.998 L55.992,4 C55.992,1.79 57.784,7.10542736e-15 59.99,7.10542736e-15 C62.2,7.10542736e-15 63.99,1.79 63.99,4 L63.99,11.998 C63.99,14.208 62.202,15.996 59.99,15.996 Z M31.71,25.368 L26.056,19.714 C24.494,18.152 24.494,15.618 26.056,14.058 C27.616,12.496 30.15,12.496 31.71,14.058 L37.366,19.714 C38.928,21.274 38.928,23.808 37.366,25.368 C35.806,26.93 33.272,26.93 31.71,25.368 Z" id="Shape"></path>
        </g>
    </g>
</svg>