<?xml version="1.0" encoding="UTF-8"?>
<svg width="88px" height="77px" viewBox="0 0 88 77" version="1.1" xmlns="http://www.w3.org/2000/svg" xmlns:xlink="http://www.w3.org/1999/xlink">
    <title>Cloud-Snow-Alt</title>
    <g id="Page-1" stroke="none" stroke-width="1" fill="none" fill-rule="evenodd">
        <g id="Cloud-Snow-Alt" transform="translate(0.006, 0.284)" fill="#000000">
            <path d="M67.99,63.638 L67.99,55.474 C74.886,53.692 79.99,47.45 79.99,39.998 C79.99,31.164 72.826,24 63.992,24 C60.79,24 57.824,24.96 55.324,26.582 C52.862,15.948 43.378,8 31.996,8 C18.742,8 7.998,18.746 7.998,32 C7.998,40.876 12.832,48.61 19.996,52.758 L19.996,61.648 C8.276,56.898 -7.10542736e-15,45.422 -7.10542736e-15,31.998 C-7.10542736e-15,14.328 14.324,0 31.996,0 C44.004,0 54.454,6.624 59.926,16.408 C61.254,16.182 62.598,15.998 63.992,15.998 C77.244,15.998 87.988,26.744 87.988,39.994 C87.988,51.888 79.336,61.728 67.99,63.638 Z M30.138,51.998 C31.244,50.084 33.688,49.432 35.602,50.534 L39.994,53.068 L39.994,47.998 C39.994,45.79 41.786,43.998 43.994,43.998 C46.202,43.998 47.994,45.79 47.994,47.998 L47.994,53.068 L52.384,50.532 C54.298,49.43 56.744,50.082 57.846,51.996 C58.952,53.91 58.296,56.356 56.384,57.46 L51.992,59.996 L56.384,62.532 C58.296,63.638 58.952,66.082 57.846,67.996 C56.742,69.906 54.298,70.562 52.384,69.456 L47.994,66.924 L47.994,71.994 C47.994,74.204 46.202,75.994 43.994,75.994 C41.786,75.994 39.994,74.204 39.994,71.994 L39.994,66.924 L35.604,69.46 C33.69,70.566 31.244,69.91 30.14,68 C29.036,66.086 29.69,63.64 31.604,62.536 L35.994,59.998 L31.604,57.462 C29.69,56.356 29.036,53.912 30.138,51.998 Z M43.994,63.998 C46.202,63.998 47.994,62.206 47.994,59.998 C47.994,57.788 46.202,55.998 43.994,55.998 C41.786,55.998 39.994,57.788 39.994,59.998 C39.994,62.204 41.786,63.998 43.994,63.998 Z" id="Shape"></path>
        </g>
    </g>
</svg>