<?xml version="1.0" encoding="UTF-8"?>
<svg width="89px" height="65px" viewBox="0 0 89 65" version="1.1" xmlns="http://www.w3.org/2000/svg" xmlns:xlink="http://www.w3.org/1999/xlink">
    <title>Clouds</title>
    <g id="Page-1" stroke="none" stroke-width="1" fill="none" fill-rule="evenodd">
        <g id="Clouds" transform="translate(0.894, 0.286)" fill="#000000">
            <path d="M31.996,63.992 C14.326,63.992 0,49.668 0,31.996 C0,14.324 14.326,0 31.996,0 C44.004,0 54.454,6.624 59.926,16.406 C61.254,16.18 62.602,15.996 63.992,15.996 C77.246,15.996 87.99,26.742 87.99,39.996 C87.99,53.246 77.246,63.992 63.992,63.992 C58.442,63.992 38.392,63.992 31.996,63.992 Z M63.992,55.992 C72.828,55.992 79.992,48.828 79.992,39.996 C79.992,31.16 72.828,23.996 63.992,23.996 C60.792,23.996 57.828,24.958 55.326,26.578 C52.864,15.946 43.378,7.998 31.996,7.998 C18.744,7.998 8,18.742 8,31.996 C8,45.248 18.744,55.992 31.996,55.992 C39.23,55.992 57.954,55.992 63.992,55.992 Z" id="Shape"></path>
        </g>
    </g>
</svg>