<?xml version="1.0" encoding="UTF-8"?>
<svg width="89px" height="89px" viewBox="0 0 89 89" version="1.1" xmlns="http://www.w3.org/2000/svg" xmlns:xlink="http://www.w3.org/1999/xlink">
    <title>Drizzle</title>
    <g id="Page-1" stroke="none" stroke-width="1" fill="none" fill-rule="evenodd">
        <g id="Drizzle" transform="translate(0.894, 0.284)" fill="#000000">
            <path d="M71.992,62.598 L71.992,53.836 C76.766,51.066 79.988,45.914 79.988,39.996 C79.988,31.16 72.828,23.996 63.992,23.996 C60.788,23.996 57.824,24.958 55.324,26.578 C52.86,15.946 43.378,7.998 31.996,7.998 C18.742,7.998 8,18.742 8,31.996 C8,39.094 11.098,45.454 15.996,49.848 L15.996,59.676 C6.442,54.14 0,43.832 0,31.996 C0,14.324 14.324,0 31.996,0 C44.004,0 54.454,6.624 59.926,16.406 C61.254,16.18 62.598,15.996 63.992,15.996 C77.246,15.996 87.988,26.742 87.988,39.996 C87.988,50.438 81.306,59.302 71.992,62.598 Z M27.996,39.998 C30.204,39.998 31.996,41.788 31.996,43.998 L31.996,51.994 C31.996,54.204 30.204,55.994 27.996,55.994 C25.786,55.994 23.996,54.204 23.996,51.994 L23.996,43.998 C23.996,41.786 25.786,39.998 27.996,39.998 Z M27.996,63.994 C30.204,63.994 31.996,65.784 31.996,67.994 L31.996,75.99 C31.996,78.2 30.204,79.99 27.996,79.99 C25.786,79.99 23.996,78.2 23.996,75.99 L23.996,67.994 C23.996,65.782 25.786,63.994 27.996,63.994 Z M43.992,47.994 C46.202,47.994 47.992,49.786 47.992,51.994 L47.992,59.994 C47.992,62.202 46.202,63.994 43.992,63.994 C41.784,63.994 39.996,62.202 39.996,59.994 L39.996,51.994 C39.996,49.786 41.786,47.994 43.992,47.994 Z M43.992,71.994 C46.202,71.994 47.992,73.784 47.992,75.99 L47.992,83.99 C47.992,86.2 46.202,87.99 43.992,87.99 C41.784,87.99 39.996,86.2 39.996,83.99 L39.996,75.99 C39.996,73.782 41.786,71.994 43.992,71.994 Z M59.992,39.998 C62.2,39.998 63.992,41.788 63.992,43.998 L63.992,51.994 C63.992,54.204 62.2,55.994 59.992,55.994 C57.782,55.994 55.992,54.204 55.992,51.994 L55.992,43.998 C55.992,41.786 57.782,39.998 59.992,39.998 Z M59.992,63.994 C62.2,63.994 63.992,65.784 63.992,67.994 L63.992,75.99 C63.992,78.2 62.2,79.99 59.992,79.99 C57.782,79.99 55.992,78.2 55.992,75.99 L55.992,67.994 C55.992,65.782 57.782,63.994 59.992,63.994 Z" id="Shape"></path>
        </g>
    </g>
</svg>