<?xml version="1.0" encoding="UTF-8"?>
<svg width="88px" height="81px" viewBox="0 0 88 81" version="1.1" xmlns="http://www.w3.org/2000/svg" xmlns:xlink="http://www.w3.org/1999/xlink">
    <title>Fog</title>
    <g id="Page-1" stroke="none" stroke-width="1" fill="none" fill-rule="evenodd">
        <g id="Fog" transform="translate(0.006, 0.288)" fill="#000000">
            <path d="M83.99,63.994 L4,63.994 C1.792,63.994 0,62.202 0,59.994 C0,57.784 1.792,55.994 4,55.994 L83.99,55.994 C86.198,55.994 87.99,57.784 87.99,59.994 C87.99,62.2 86.2,63.994 83.99,63.994 Z M83.99,47.994 L4,47.994 C1.792,47.994 0,46.204 0,43.994 C0,41.786 1.792,39.994 4,39.994 L83.99,39.994 C86.198,39.994 87.99,41.786 87.99,43.994 C87.99,46.204 86.2,47.994 83.99,47.994 Z M63.992,23.998 C60.79,23.998 57.826,24.958 55.326,26.58 C52.862,15.946 43.378,7.998 31.996,7.998 C18.744,7.998 8,18.744 8,31.998 L1.42108547e-14,31.998 C1.42108547e-14,14.328 14.326,0 31.996,0 C44.004,0 54.454,6.624 59.926,16.408 C61.254,16.182 62.6,15.998 63.992,15.998 C74.436,15.998 83.296,22.682 86.594,31.998 L77.832,31.998 C75.064,27.218 69.91,23.998 63.992,23.998 Z M4,71.99 L83.99,71.99 C86.198,71.99 87.99,73.782 87.99,75.99 C87.99,78.2 86.198,79.99 83.99,79.99 L4,79.99 C1.792,79.99 0,78.2 0,75.99 C0,73.782 1.79,71.99 4,71.99 Z" id="Shape"></path>
        </g>
    </g>
</svg>