<?xml version="1.0" encoding="UTF-8"?>
<svg width="44px" height="45px" viewBox="0 0 44 45" version="1.1" xmlns="http://www.w3.org/2000/svg" xmlns:xlink="http://www.w3.org/1999/xlink">
    <title>Rain</title>
    <g id="Page-1" stroke="none" stroke-width="1" fill="none" fill-rule="evenodd">
        <g id="Rain" transform="translate(0.004, 0.643)" fill="#000000">
            <path d="M35.995,31.298 L35.995,26.917 C38.384,25.534 39.994,22.956 39.994,19.997 C39.994,15.58 36.413,11.998 31.996,11.998 C30.395,11.998 28.912,12.478 27.662,13.289 C26.431,7.972 21.688,3.999 15.997,3.999 C9.371,3.999 3.999,9.371 3.999,15.997 C3.999,19.547 5.549,22.725 7.998,24.922 L7.998,29.838 C3.222,27.07 0,21.916 0,15.997 C0,7.162 7.162,0 15.997,0 C22.001,0 27.226,3.311 29.963,8.203 C30.626,8.09 31.299,7.998 31.996,7.998 C38.622,7.998 43.994,13.37 43.994,19.997 C43.994,25.22 40.652,29.65 35.995,31.298 Z M13.998,31.996 C12.894,31.996 12.998,31.101 12.998,29.998 L12.998,21.998 C12.998,20.894 12.894,19.998 13.998,19.998 C15.102,19.998 14.998,20.894 14.998,21.998 L14.998,29.998 C14.998,31.101 15.102,31.996 13.998,31.996 Z M13.998,35.996 C15.102,35.996 15.997,36.892 15.997,37.996 C15.997,39.101 15.102,39.996 13.998,39.996 C12.894,39.996 11.998,39.101 11.998,37.996 C11.998,36.892 12.893,35.996 13.998,35.996 Z M21.997,35.996 C20.893,35.996 20.997,35.101 20.997,33.996 L20.997,25.998 C20.997,24.893 20.893,23.998 21.997,23.998 C23.101,23.998 22.997,24.893 22.997,25.998 L22.997,33.996 C22.997,35.101 23.101,35.996 21.997,35.996 Z M21.997,39.996 C23.101,39.996 23.996,40.891 23.996,41.996 C23.996,43.1 23.101,43.996 21.997,43.996 C20.893,43.996 19.997,43.1 19.997,41.996 C19.997,40.89 20.892,39.996 21.997,39.996 Z M29.996,31.996 C28.892,31.996 28.996,31.101 28.996,29.998 L28.996,21.998 C28.996,20.894 28.892,19.998 29.996,19.998 C31.1,19.998 30.996,20.894 30.996,21.998 L30.996,29.998 C30.996,31.101 31.1,31.996 29.996,31.996 Z M29.996,35.996 C31.1,35.996 31.996,36.892 31.996,37.996 C31.996,39.101 31.1,39.996 29.996,39.996 C28.892,39.996 27.996,39.101 27.996,37.996 C27.996,36.892 28.892,35.996 29.996,35.996 Z" id="Shape"></path>
        </g>
    </g>
</svg>