<?xml version="1.0" encoding="UTF-8"?>
<svg width="88px" height="56px" viewBox="0 0 88 56" version="1.1" xmlns="http://www.w3.org/2000/svg" xmlns:xlink="http://www.w3.org/1999/xlink">
    <title>Wind</title>
    <g id="Page-1" stroke="none" stroke-width="1" fill="none" fill-rule="evenodd">
        <g id="Wind" transform="translate(0.006, 0.004)" fill="#000000">
            <path d="M75.992,31.996 L75.992,31.996 L69.992,31.996 C67.782,31.996 65.992,30.206 65.992,27.998 C65.992,25.79 67.782,23.998 69.992,23.998 L75.992,23.998 C78.2,23.998 79.992,22.206 79.992,20 C79.992,17.79 78.2,16 75.992,16 C73.782,16 71.992,14.208 71.992,12 C71.992,9.792 73.782,8 75.992,8 C76.266,8 76.534,8.028 76.796,8.082 C83.038,8.504 87.988,13.648 87.988,20 C87.988,26.624 82.618,31.996 75.992,31.996 Z M55.992,23.998 L51.992,23.998 L37.996,23.998 L11.998,23.998 C9.79,23.998 8,25.79 8,27.998 C8,30.206 9.79,31.996 11.998,31.996 L15.998,31.996 L23.996,31.996 L29.996,31.996 L37.996,31.996 L43.996,31.996 L51.992,31.996 L55.992,31.996 C62.62,31.996 67.992,37.37 67.992,43.996 C67.992,50.348 63.042,55.492 56.8,55.914 C56.538,55.968 56.27,55.996 55.992,55.996 C53.784,55.996 51.992,54.204 51.992,51.996 C51.992,49.786 53.784,47.996 55.992,47.996 C58.202,47.996 59.992,46.204 59.992,43.996 C59.992,41.788 58.202,39.996 55.992,39.996 L51.992,39.996 L43.996,39.996 L37.996,39.996 L29.996,39.996 L23.996,39.996 L15.998,39.996 L11.998,39.996 C5.372,39.996 0,34.624 0,27.998 C0,21.648 4.95,16.504 11.192,16.08 C11.454,16.028 11.724,16 11.998,16 L11.998,16 L37.996,16 L51.992,16 L55.992,16 C58.202,16 59.992,14.208 59.992,12 C59.992,9.792 58.202,8 55.992,8 C53.784,8 51.992,6.21 51.992,4 C51.992,1.792 53.784,0 55.992,0 C56.27,0 56.538,0.03 56.8,0.082 C63.042,0.504 67.992,5.648 67.992,12 C67.992,18.624 62.62,23.998 55.992,23.998 Z" id="Shape"></path>
        </g>
    </g>
</svg>